<svg xmlns="http://www.w3.org/2000/svg" viewBox="0 0 32 32" fill="none">
  <ellipse cx="16" cy="22" rx="11" ry="5" fill="#D4AF37" opacity="0.9"/>
  <path d="M7 22 Q8 27 16 27 Q24 27 25 22 Z" fill="#C8960C"/>
  <path d="M9 22 Q10 25 16 25 Q22 25 23 22 Z" fill="#D4AF37" opacity="0.5"/>
  <line x1="16" y1="22" x2="16" y2="17" stroke="#8B6914" stroke-width="1.5" stroke-linecap="round"/>
  <path d="M16 17 C13 14 13 10 16 7 C19 10 19 14 16 17Z" fill="#FF6F00" opacity="0.9"/>
  <path d="M16 16 C14.5 14 14.5 11 16 9 C17.5 11 17.5 14 16 16Z" fill="#FFD700"/>
  <circle cx="16" cy="9" r="1.5" fill="#FFF9C4" opacity="0.8"/>
  <path d="M7 22 Q4 18 8 16 Q10 19 7 22Z" fill="#C2185B" opacity="0.7"/>
  <path d="M25 22 Q28 18 24 16 Q22 19 25 22Z" fill="#C2185B" opacity="0.7"/>
  <path d="M11 27 Q9 30 12 30 Q13 28 11 27Z" fill="#D4AF37" opacity="0.6"/>
  <path d="M21 27 Q23 30 20 30 Q19 28 21 27Z" fill="#D4AF37" opacity="0.6"/>
</svg>
